<svg id="visual" viewBox="0 0 900 600" width="900" height="600" xmlns="http://www.w3.org/2000/svg" xmlns:xlink="http://www.w3.org/1999/xlink" version="1.1"><rect x="0" y="0" width="900" height="600" fill="#141217"></rect><defs><linearGradient id="grad1_0" x1="33.3%" y1="0%" x2="100%" y2="100%"><stop offset="20%" stop-color="#141217" stop-opacity="1"></stop><stop offset="80%" stop-color="#141217" stop-opacity="1"></stop></linearGradient></defs><defs><linearGradient id="grad2_0" x1="0%" y1="0%" x2="66.7%" y2="100%"><stop offset="20%" stop-color="#141217" stop-opacity="1"></stop><stop offset="80%" stop-color="#141217" stop-opacity="1"></stop></linearGradient></defs><g transform="translate(900, 0)"><path d="M0 351.5C-46.4 346.9 -92.9 342.3 -134.5 324.8C-176.2 307.3 -213 276.8 -242.5 242.5C-272.1 208.2 -294.4 170 -311.3 129C-328.3 87.9 -339.9 43.9 -351.5 0L0 0Z" fill="#d946ef"></path></g><g transform="translate(0, 600)"><path d="M0 -351.5C47.2 -348.2 94.4 -344.9 134.5 -324.8C174.7 -304.6 207.9 -267.7 230.5 -230.5C253.1 -193.3 265.2 -155.9 283.6 -117.5C302 -79 326.8 -39.5 351.5 0L0 0Z" fill="#d946ef"></path></g></svg>